<svg xmlns="http://www.w3.org/2000/svg" xmlns:xlink="http://www.w3.org/1999/xlink" version="1.1" x="0px" y="0px" viewBox="0 0 100 114.32499999999999" enable-background="new 0 0 100 91.46" xml:space="preserve"><path d="M91.408,8.523C79.943-2.882,61.404-2.837,49.999,8.634C38.594-2.837,20.056-2.882,8.591,8.523  C-2.875,19.924-3.141,38.309,9.467,50.919c14.075,14.067,36.592,36.597,40.53,40.541c3.944-3.944,26.457-26.473,40.532-40.541  C103.143,38.309,102.873,19.923,91.408,8.523z M60.176,35.937l-2.293,5.507H45.135c-0.061,0.373-0.061,0.806-0.061,1.3  c0,0.557,0,1.053,0.061,1.423h11.7l-2.293,5.508h-8.294c1.547,3.712,4.273,5.569,8.173,5.569c2.66,0,5.508-1.054,8.601-3.093V63.66  c-2.912,1.299-6.313,1.919-10.213,1.919c-4.948,0-9.155-1.427-12.622-4.274c-3.405-2.905-5.754-6.741-7.054-11.629h-4.828  l2.288-5.508h1.733c-0.061-0.309-0.061-0.804-0.061-1.36c0-0.557,0-1.053,0.061-1.363H28.18l2.293-5.507h2.66  c1.3-4.887,3.648-8.787,7.174-11.694c3.528-2.91,7.74-4.394,12.749-4.394c3.96,0,8.106,1.177,12.439,3.464l-4.394,9.344  c-2.475-1.608-4.888-2.414-7.239-2.414c-3.588,0-6.188,1.919-7.735,5.693H60.176z"/><text x="0" y="106.46" fill="#000000" font-size="5px" font-weight="bold" font-family="'Helvetica Neue', Helvetica, Arial-Unicode, Arial, Sans-serif">Created by Patrick Trouvé</text><text x="0" y="111.46" fill="#000000" font-size="5px" font-weight="bold" font-family="'Helvetica Neue', Helvetica, Arial-Unicode, Arial, Sans-serif">from the Noun Project</text></svg>